<?xml version="1.0" encoding="UTF-8"?>
<svg id="Layer_1" data-name="Layer 1" xmlns="http://www.w3.org/2000/svg" xmlns:xlink="http://www.w3.org/1999/xlink" viewBox="0 0 1306.5 212">
  <defs>
    <style>
      .cls-1 {
        fill: url(#linear-gradient);
      }

      .cls-1, .cls-2 {
        stroke-width: 0px;
      }

      .cls-2 {
        fill: #fff;
      }
    </style>
    <linearGradient id="linear-gradient" x1="20.95" y1="107.7" x2="1288.05" y2="107.7" gradientUnits="userSpaceOnUse">
      <stop offset="0" stop-color="#0088fe"/>
      <stop offset=".34" stop-color="#5477a9"/>
      <stop offset="1" stop-color="#ff5700"/>
    </linearGradient>
  </defs>
  <rect class="cls-1" x="20.95" y="16.59" width="1267.1" height="182.2"/>
  <g>
    <path class="cls-2" d="M90.56,152.89v-1.13c0-14.17,6.37-25.7,23.99-38.54,11.49-8.4,14.97-11.3,14.97-18.41s-3.42-11.02-10.27-11.02c-7.98,0-10.85,4.88-11.97,11.97h-17.09c1.17-14.04,10.36-25.75,29.06-25.75,20.92,0,28.08,12.46,28.08,24.65s-5.1,17.59-20.08,28.1c-10.04,7.05-14.07,11.69-15.46,15.36h38.55l-2.2,14.77h-57.57Z"/>
    <path class="cls-2" d="M214.56,71.49v13.14c-12.9,18.25-25.53,44.66-28.72,68.26h-18.21c3.21-23.94,17.79-52.65,28.89-66.84h-38.33v-14.56h56.36Z"/>
    <path class="cls-2" d="M218.03,74.36h5.76v-10.11h10.34v10.11h7.31v7.77h-7.31v18.42c0,2.83.87,3.93,3.95,3.93.57,0,1.58,0,2.35-.12v7.11c-2.05.7-4.86.71-6.95.71-7.28,0-9.69-3.9-9.69-10.43v-19.64h-5.76v-7.77Z"/>
    <path class="cls-2" d="M257.68,59.04v19.72c1.64-2.42,4.67-5.27,10.69-5.27,6.96,0,12.51,4.12,12.51,14.25v23.95h-10.27v-22.41c0-4.85-1.72-7.43-6.06-7.43-5.74,0-6.87,4.27-6.87,10.03v19.81h-10.34v-52.65h10.34Z"/>
    <path class="cls-2" d="M325.63,152.89v-85.29h22.86c10.65,19.15,30.34,53.69,34.26,62.98h.23c-.96-8.9-.95-23.71-.95-37.7v-25.27h16.71v85.29h-21.68c-9.16-16.66-30.98-56.34-35.21-66.19h-.23c.62,7.46.82,24.98.82,40.25v25.94h-16.82Z"/>
    <path class="cls-2" d="M475.05,120.75c0,19.37-11.59,33.62-31.88,33.62s-31.45-14.17-31.45-33.28,11.95-33.72,32.28-33.72c18.85,0,31.04,13.3,31.04,33.38ZM429.72,120.87c0,12.33,5.3,19.63,13.84,19.63s13.5-7.31,13.5-19.52c0-13.4-4.92-19.74-13.75-19.74-8.22,0-13.59,6.09-13.59,19.63Z"/>
    <path class="cls-2" d="M498.38,88.86c6.1,21.68,11.18,40.66,12.44,48.36h.12c1.8-10.57,8.07-29.87,13.64-48.36h17.66l-22.62,64.03h-18.64l-21.69-64.03h19.08Z"/>
    <path class="cls-2" d="M564.04,124.66c.02,8.01,4.03,15.84,12.85,15.84,7.38,0,9.49-2.96,11.17-6.84h17.74c-2.27,7.84-9.26,20.71-29.38,20.71s-30.24-15.77-30.24-32.57c0-20.09,10.31-34.43,30.87-34.43,21.99,0,29.47,15.91,29.47,31.89,0,2.17,0,3.57-.23,5.4h-42.26ZM588.77,113.78c-.12-7.46-3.1-13.73-11.74-13.73s-11.91,5.86-12.62,13.73h24.36Z"/>
    <path class="cls-2" d="M618.97,105.36c0-5.54,0-11.02-.12-16.5h16.95c.23,1.56.59,5.13.68,7.63,3.25-4.77,8.4-9.12,17.79-9.12s14.26,4.76,16.52,9.74c3.75-5.23,9.28-9.74,19.73-9.74,11.16,0,20.29,6.86,20.29,23.51v42h-17.29v-39.85c0-5.78-2.1-11.44-9.36-11.44s-10.47,4.86-10.47,14.68v36.61h-17.39v-39.18c0-6.63-1.63-12-9.2-12s-10.63,4.43-10.63,15.42v35.76h-17.51v-47.53Z"/>
    <path class="cls-2" d="M726.72,62.59h17.73v33.07c2.64-4.12,7.94-8.28,18.32-8.28,17.43,0,26.12,14.39,26.12,32.36s-9.43,34.64-27.84,34.64c-9.52,0-13.71-2.9-16.82-7.55,0,2.11-.34,4.45-.68,6.07h-16.95c.12-6.94.12-13.99.12-20.94V62.59ZM770.9,120.07c0-10.67-3.97-18.5-13.54-18.5-10.13,0-13.72,6.59-13.72,19.64,0,10.79,3.19,19.07,13.52,19.07,9.01,0,13.74-8.1,13.74-20.21Z"/>
    <path class="cls-2" d="M815.91,124.66c.01,8.01,4.03,15.84,12.85,15.84,7.38,0,9.49-2.96,11.17-6.84h17.74c-2.27,7.84-9.26,20.71-29.38,20.71s-30.24-15.77-30.24-32.57c0-20.09,10.31-34.43,30.87-34.43,21.99,0,29.47,15.91,29.47,31.89,0,2.17,0,3.57-.23,5.4h-42.26ZM840.64,113.78c-.12-7.46-3.1-13.73-11.74-13.73s-11.91,5.86-12.62,13.73h24.36Z"/>
    <path class="cls-2" d="M870.83,106.23c0-6.36-.01-12.01-.12-17.37h17.39c.23,1.43.47,7.79.47,11.24,2.83-7.32,9.65-12.67,20.54-12.73v16.92c-12.87-.33-20.54,3.13-20.54,20.68v27.92h-17.73v-46.66Z"/>
    <path class="cls-2" d="M946.7,152.89v-1.13c0-14.17,6.37-25.7,23.99-38.54,11.49-8.4,14.97-11.3,14.97-18.41s-3.42-11.02-10.28-11.02c-7.97,0-10.85,4.88-11.97,11.97h-17.09c1.17-14.04,10.36-25.75,29.06-25.75,20.92,0,28.08,12.46,28.08,24.65s-5.1,17.59-20.08,28.1c-10.04,7.05-14.07,11.69-15.46,15.36h38.55l-2.2,14.77h-57.57Z"/>
    <path class="cls-2" d="M1078.5,111.68c0,22.38-7.11,42.69-31.28,42.69s-31.26-19.64-31.26-42.18,8.19-42.18,31.63-42.18,30.91,18.56,30.91,41.67ZM1034.21,111.99c0,14.96,1.71,28.28,13.23,28.28s12.71-12.45,12.71-28.48-1.91-27.68-12.55-27.68-13.4,10.25-13.4,27.87Z"/>
    <path class="cls-2" d="M1089.45,152.89v-1.13c0-14.17,6.37-25.7,23.99-38.54,11.49-8.4,14.97-11.3,14.97-18.41s-3.42-11.02-10.28-11.02c-7.97,0-10.85,4.88-11.97,11.97h-17.09c1.17-14.04,10.36-25.75,29.06-25.75,20.92,0,28.08,12.46,28.08,24.65s-5.1,17.59-20.08,28.1c-10.04,7.05-14.07,11.69-15.46,15.36h38.55l-2.2,14.77h-57.57Z"/>
    <path class="cls-2" d="M1192.7,152.89v-18.3h-36.82v-15.43l33.97-47.67h19.28v48.78h9.81l-1.63,14.32h-8.18v18.3h-16.44ZM1192.7,105.78c0-8.82.01-13.74.36-18.86-3.23,6.81-13.83,22.32-21.49,33.35h21.13v-14.49Z"/>
  </g>
</svg>